:SAMPLES-PER-SECOND 30
:FULLY-SPECIFIED
:DEGREES
1070
root  32.6548 38.7394 9.34284 160.153 77.015 156.562
RightUpLeg  -20.2654 -24.3293 -14.4824
RightLeg  31.649 -11.591 -7.84543
RightFoot  -4.3097 -0.424198 6.41875
RightToes  0.000481921 0.542163 -0.142578
Spine  29.8607 3.31199 19.4623
Spine1  5.62617 15.4511 -27.8285
HEad  -3.74571 -19.5269 -5.56659
LeftShoulder1  7.19023 -13.0768 -37.2402
LeftArm  -7.87704 -1.20625 -27.5085
LeftForeArm  -165.994 -58.6755 -165.664
LeftHand  -0.25398 0.0180481 5.50724
RightShoulder  0.45472 3.10708 -1.63198
RightArm  -54.5678 58.8629 -15.7334
RightForeArm  66.2181 -1.83054 -1.25544
RightHand  0.0409728 1.57059 0.297603
LeftUpLeg  -22.1791 19.8276 -3.92381
LeftLeg  24.4609 -5.01475 -2.15466
LeftFoot  -2.97905 0.244316 -3.10201
LeftToes  1.06244e-005 4.65869e-005 -8.65518e-006
1071
root  32.8191 38.7832 9.34568 163.573 76.0848 160.361
RightUpLeg  -18.9298 -26.7653 -14.3749
RightLeg  31.0453 -10.4365 -6.95295
RightFoot  -4.5305 -0.408988 6.34697
RightToes  0.000481921 0.542163 -0.142578
Spine  28.3511 2.87049 17.7309
Spine1  6.16675 13.7861 -25.3734
HEad  -4.09264 -15.9599 -4.26661
LeftShoulder1  7.55956 -13.3906 -38.5709
LeftArm  -10.2762 1.17831 -27.3337
LeftForeArm  -166.652 -57.3688 -166.322
LeftHand  -0.25398 0.0180481 5.50724
RightShoulder  0.815688 3.32985 3.85882
RightArm  -55.7435 60.8768 -8.74139
RightForeArm  43.1772 16.2957 1.34231
RightHand  -0.579574 2.09709 -8.76456
LeftUpLeg  -21.6057 18.6032 -3.15716
LeftLeg  24.4203 -4.90601 -2.0972
LeftFoot  -3.0512 0.255364 -3.27379
LeftToes  1.06244e-005 4.65869e-005 -8.65518e-006
1072
root  33.0833 38.9552 9.32466 165.775 76.2442 163.683
RightUpLeg  -16.2173 -27.9189 -14.2346
RightLeg  29.0894 -9.48979 -5.90379
RightFoot  -4.25259 -0.410681 6.157
RightToes  0.000481921 0.542163 -0.142578
Spine  26.6467 2.18568 16.3822
Spine1  7.15364 12.3432 -23.955
HEad  -2.80811 -12.8631 -2.88246
LeftShoulder1  7.80417 -13.7755 -38.9722
LeftArm  -11.7268 3.66397 -27.9648
LeftForeArm  -169.159 -56.5985 -166.528
LeftHand  -0.25398 0.0180481 5.50724
RightShoulder  1.47945 5.80121 8.49151
RightArm  -42.2297 59.7095 7.70021
RightForeArm  33.1336 39.4264 7.17008
RightHand  -1.2033 7.09938 -11.6941
LeftUpLeg  -19.4742 17.587 -1.64657
LeftLeg  23.4884 -4.17497 -1.65538
LeftFoot  -2.99214 0.261576 -3.33856
LeftToes  1.06244e-005 4.65869e-005 -8.65518e-006
1073
root  33.4368 39.2117 9.30306 165.572 77.7178 164.594
RightUpLeg  -13.3354 -27.5181 -14.1023
RightLeg  26.2106 -8.77352 -4.89823
RightFoot  -3.61087 -0.423619 5.90027
RightToes  0.000481921 0.542163 -0.142578
Spine  25.1267 2.09666 15.3109
Spine1  7.57412 11.786 -23.6066
HEad  -1.01695 -11.208 -1.84749
LeftShoulder1  7.75797 -13.7532 -38.7701
LeftArm  -11.0917 4.65942 -28.7847
LeftForeArm  -169.308 -56.2582 -166.687
LeftHand  -0.25398 0.0180481 5.50724
RightShoulder  2.37115 8.68201 12.419
RightArm  -25.8558 55.0011 25.052
RightForeArm  49.5623 60.2522 15.4274
RightHand  -0.664729 4.60008 -7.9318
LeftUpLeg  -16.4706 17.5356 -0.202961
LeftLeg  21.5364 -3.12073 -1.02159
LeftFoot  -2.76167 0.275296 -3.44857
LeftToes  1.06244e-005 4.65869e-005 -8.65518e-006
1074
root  33.8504 39.4849 9.28184 163.987 79.6218 163.632
RightUpLeg  -10.8544 -27.037 -13.9496
RightLeg  22.9009 -7.78939 -3.8378
RightFoot  -2.88261 -0.440036 5.67881
RightToes  0.000481921 0.542163 -0.142578
Spine  23.4402 2.71551 14.0331
Spine1  7.11983 11.6166 -22.831
HEad  0.564614 -10.3541 -1.74216
LeftShoulder1  7.55277 -13.2771 -38.8228
LeftArm  -8.8653 4.36216 -29.1037
LeftForeArm  -165.638 -55.269 -167.429
LeftHand  -0.25398 0.0180481 5.50724
RightShoulder  3.66587 10.6782 19.381
RightArm  -12.1896 47.0428 36.6973
RightForeArm  81.4379 76.3292 36.1379
RightHand  -0.205555 1.01517 -3.96881
LeftUpLeg  -13.4839 18.1252 0.87334
LeftLeg  18.9667 -2.11853 -0.511585
LeftFoot  -2.36834 0.300309 -3.64526
LeftToes  1.06244e-005 4.65869e-005 -8.65518e-006
1075
root  34.2592 39.7085 9.25584 162.307 81.1956 162.268
RightUpLeg  -8.64365 -26.8461 -13.9498
RightLeg  19.7802 -6.78782 -2.75399
RightFoot  -2.32836 -0.455076 5.56625
RightToes  0.000481921 0.542163 -0.142578
Spine  21.3802 3.42698 12.6251
Spine1  6.6313 11.2404 -20.982
HEad  1.7259 -9.36098 -2.52176
LeftShoulder1  7.36143 -12.6472 -39.3666
LeftArm  -6.44107 3.41469 -29.1549
LeftForeArm  -159.977 -53.1981 -168.737
LeftHand  -0.25398 0.0180481 5.50724
RightShoulder  5.4247 11.6358 29.8696
RightArm  -4.26529 36.6524 39.357
RightForeArm  149.099 81.6844 103.826
RightHand  -0.0206185 0.319044 -0.525399
LeftUpLeg  -10.9043 18.1359 1.84945
LeftLeg  16.5619 -0.741557 -0.311238
LeftFoot  -2.035 0.333497 -3.947
LeftToes  1.06244e-005 4.65869e-005 -8.65518e-006
1076
root  34.5886 39.8342 9.22585 160.694 82.4994 161.05
RightUpLeg  -6.77055 -25.161 -14.2106
RightLeg  17.6843 -7.28004 -1.90669
RightFoot  -2.11659 -0.469442 5.63464
RightToes  0.000481921 0.542163 -0.142578
Spine  19.2275 3.77273 11.3342
Spine1  6.94463 10.5169 -18.3015
HEad  2.07719 -7.73508 -3.71115
LeftShoulder1  7.20221 -12.051 -40.0503
LeftArm  -5.04064 2.07587 -29.3067
LeftForeArm  -155.738 -50.8031 -169.958
LeftHand  -0.25398 0.0180481 5.50724
RightShoulder  6.99551 11.8844 39.3871
RightArm  -2.06759 27.1972 35.7402
RightForeArm  -172.522 75.7348 145.781
RightHand  0.242575 0.943577 4.40024
LeftUpLeg  -8.849 17.1281 2.87392
LeftLeg  15.1504 1.34774 -0.304062
LeftFoot  -2.11476 0.363252 -4.34574
LeftToes  1.06244e-005 4.65869e-005 -8.65518e-006
1077
root  34.7949 39.8511 9.18429 156.58 84.1685 157.553
RightUpLeg  -5.96527 -23.1055 -14.1802
RightLeg  17.1563 -7.49434 -1.80236
RightFoot  -2.21329 -0.478642 5.80135
RightToes  0.000481921 0.542163 -0.142578
Spine  17.3894 3.73339 10.0007
Spine1  7.79316 9.46277 -15.3144
HEad  1.59652 -5.15678 -4.88379
LeftShoulder1  6.97031 -11.4695 -40.2813
LeftArm  -5.3024 0.871123 -29.4749
LeftForeArm  -155.272 -48.6738 -170.748
LeftHand  -0.25398 0.0180481 5.50724
RightShoulder  7.60413 11.6901 43.6585
RightArm  -1.66413 21.8866 32.0158
RightForeArm  -163.39 71.0436 155.513
RightHand  0.422729 0.979924 7.56709
LeftUpLeg  -7.40183 17.2948 3.57323
LeftLeg  15.1007 2.57633 -0.0745305
LeftFoot  -2.7757 0.37131 -4.73567
LeftToes  1.06244e-005 4.65869e-005 -8.65518e-006
1078
root  34.8949 39.7874 9.11257 130.083 86.4254 131.897
RightUpLeg  -6.41277 -21.0797 -13.9264
RightLeg  18.0796 -6.41454 -2.2259
RightFoot  -2.40092 -0.46945 5.7888
RightToes  0.000481921 0.542163 -0.142578
Spine  16.141 3.40961 8.66753
Spine1  8.18698 8.27221 -13.078
HEad  1.32269 -1.49599 -5.86838
LeftShoulder1  6.67245 -11.0075 -39.7409
LeftArm  -6.89791 0.565074 -29.3033
LeftForeArm  -157.84 -46.743 -171.246
LeftHand  -0.25398 0.0180481 5.50724
RightShoulder  7.19876 11.2693 42.4153
RightArm  -0.70369 21.9907 31.0288
RightForeArm  -167.958 71.898 153.329
RightHand  0.281606 0.866368 5.22518
LeftUpLeg  -6.1149 19.1736 4.06218
LeftLeg  16.0038 3.27195 0.321284
LeftFoot  -3.85342 0.353029 -5.0408
LeftToes  1.06244e-005 4.65869e-005 -8.65518e-006
1079
root  34.9538 39.6978 9.004 59.5554 86.7284 62.4325
RightUpLeg  -7.38284 -17.5735 -13.9476
RightLeg  19.4814 -5.41509 -2.36236
RightFoot  -2.48132 -0.438484 5.43685
RightToes  0.000481921 0.542163 -0.142578
Spine  15.5337 2.9719 8.13944
Spine1  7.71072 7.48042 -12.6882
HEad  2.32847 2.48251 -6.80862
LeftShoulder1  6.49982 -10.9173 -38.8783
LeftArm  -8.73862 0.637218 -28.4859
LeftForeArm  -161.096 -45.5331 -171.446
LeftHand  -0.25398 0.0180481 5.50724
RightShoulder  6.47005 10.9886 38.5822
RightArm  0.674322 26.1202 32.1383
RightForeArm  174.055 77.0551 139.022
RightHand  0.0860982 0.793203 1.48907
LeftUpLeg  -4.31396 22.0041 4.58449
LeftLeg  16.9669 4.4499 0.720478
LeftFoot  -4.97773 0.328293 -5.36776
LeftToes  1.06244e-005 4.65869e-005 -8.65518e-006
